<svg width="80" height="80" viewBox="0 0 80 80" fill="none" xmlns="http://www.w3.org/2000/svg">
<path d="M40 0C17.94 0 0 17.94 0 40C0 62.06 17.94 80 40 80C62.06 80 80 62.06 80 40C80 17.94 62.06 0 40 0ZM40 75.68C20.33 75.68 4.32 59.68 4.32 40C4.32 20.32 20.33 4.32 40 4.32C59.67 4.32 75.68 20.32 75.68 40C75.68 59.68 59.68 75.68 40 75.68Z" fill="black"/>
<path d="M55.08 32.18H47.82V24.92C47.82 21.61 45.13 18.92 41.82 18.92H38.18C34.87 18.92 32.18 21.61 32.18 24.92V32.18H24.92C21.61 32.18 18.92 34.87 18.92 38.18V41.82C18.92 45.13 21.61 47.82 24.92 47.82H32.18V55.08C32.18 58.39 34.87 61.08 38.18 61.08H41.82C45.13 61.08 47.82 58.39 47.82 55.08V47.82H55.08C58.39 47.82 61.08 45.13 61.08 41.82V38.18C61.08 34.87 58.39 32.18 55.08 32.18ZM56.76 41.82C56.76 42.75 56.01 43.5 55.08 43.5H45.66C44.47 43.5 43.5 44.47 43.5 45.66V55.08C43.5 56.01 42.75 56.76 41.82 56.76H38.18C37.25 56.76 36.5 56.01 36.5 55.08V45.66C36.5 44.47 35.53 43.5 34.34 43.5H24.92C23.99 43.5 23.24 42.75 23.24 41.82V38.18C23.24 37.25 23.99 36.5 24.92 36.5H34.34C35.53 36.5 36.5 35.53 36.5 34.34V24.92C36.5 23.99 37.25 23.24 38.18 23.24H41.82C42.75 23.24 43.5 23.99 43.5 24.92V34.34C43.5 35.53 44.47 36.5 45.66 36.5H55.08C56.01 36.5 56.76 37.25 56.76 38.18V41.82Z" fill="black"/>
</svg>
