<svg width="26" height="14" viewBox="0 0 26 14" fill="none" xmlns="http://www.w3.org/2000/svg">
<path fill-rule="evenodd" clip-rule="evenodd" d="M0 7C0 5.89543 0.89543 5 2 5H9V9H2C0.89543 9 0 8.10457 0 7Z" fill="black"/>
<path fill-rule="evenodd" clip-rule="evenodd" d="M11 0.25C9.34315 0.25 8 1.59315 8 3.25V10.75C8 12.4069 9.34315 13.75 11 13.75H23C24.6569 13.75 26 12.4069 26 10.75V3.25C26 1.59315 24.6569 0.25 23 0.25H11ZM12.25 2.5C11.1454 2.5 10.25 3.39543 10.25 4.5V9.5C10.25 10.6046 11.1454 11.5 12.25 11.5H21.75C22.8546 11.5 23.75 10.6046 23.75 9.5V4.5C23.75 3.39543 22.8546 2.5 21.75 2.5H12.25Z" fill="black"/>
<path fill-rule="evenodd" clip-rule="evenodd" d="M14.063 0.828697C14.7099 0.311182 15.6538 0.416065 16.1713 1.06296L20.9209 7L16.1713 12.937C15.6538 13.5839 14.7099 13.6888 14.063 13.1713C13.4161 12.6538 13.3112 11.7099 13.8287 11.063L17.0791 7L13.8287 2.93704C13.3112 2.29015 13.4161 1.34621 14.063 0.828697Z" fill="black"/>
</svg>
