<svg width="26" height="14" viewBox="0 0 26 14" fill="none" xmlns="http://www.w3.org/2000/svg">
<path fill-rule="evenodd" clip-rule="evenodd" d="M26 6.99996C26 5.89539 25.1046 4.99996 24 4.99996H17V8.99996H24C25.1046 8.99996 26 8.10453 26 6.99996Z" fill="black"/>
<path fill-rule="evenodd" clip-rule="evenodd" d="M3 -4.23817e-05C1.34315 -4.23817e-05 0 1.3431 0 2.99996V10.5C0 12.1568 1.34315 13.5 3 13.5H15C16.6569 13.5 18 12.1568 18 10.5V2.99996C18 1.3431 16.6569 -4.23817e-05 15 -4.23817e-05H3ZM4.25 2.24996C3.14543 2.24996 2.25 3.14539 2.25 4.24996V9.24996C2.25 10.3545 3.14543 11.25 4.25 11.25H13.75C14.8546 11.25 15.75 10.3545 15.75 9.24996V4.24996C15.75 3.14539 14.8546 2.24996 13.75 2.24996H4.25Z" fill="black"/>
<path fill-rule="evenodd" clip-rule="evenodd" d="M6.09094 0.30681C6.74989 -0.195253 7.69109 -0.0680644 8.19315 0.590893L12.9029 6.77247L8.1713 12.687C7.65379 13.3339 6.70985 13.4388 6.06296 12.9213C5.41606 12.4037 5.31118 11.4598 5.8287 10.8129L9.09708 6.72744L5.80685 2.40902C5.30479 1.75007 5.43198 0.808873 6.09094 0.30681Z" fill="black"/>
</svg>
