<svg width="18" height="22" viewBox="0 0 18 22" fill="none" xmlns="http://www.w3.org/2000/svg">
<path fill-rule="evenodd" clip-rule="evenodd" d="M9.0003 0C7.89573 0 7.0003 0.89543 7.0003 2V9H11.0003V2C11.0003 0.89543 10.1049 0 9.0003 0Z" fill="black"/>
<path fill-rule="evenodd" clip-rule="evenodd" d="M3.0003 8C1.34344 8 0.000296385 9.34315 0.000296385 11V18.5C0.000296385 20.1569 1.34344 21.5 3.0003 21.5H15.0003C16.6572 21.5 18.0003 20.1569 18.0003 18.5V11C18.0003 9.34315 16.6572 8 15.0003 8H3.0003ZM4.2503 10.25C3.14573 10.25 2.2503 11.1454 2.2503 12.25V17.25C2.2503 18.3546 3.14573 19.25 4.2503 19.25H13.7503C14.8549 19.25 15.7503 18.3546 15.7503 17.25V12.25C15.7503 11.1454 14.8549 10.25 13.7503 10.25H4.2503Z" fill="black"/>
<path fill-rule="evenodd" clip-rule="evenodd" d="M17.8238 11.7941C18.2137 12.5251 17.9371 13.4337 17.2062 13.8235L9.0003 18.2L0.794413 13.8235C0.0634478 13.4337 -0.213081 12.5251 0.176766 11.7941C0.566615 11.0632 1.47521 10.7866 2.20618 11.1765L9.0003 14.8L15.7944 11.1765C16.5254 10.7866 17.434 11.0632 17.8238 11.7941Z" fill="black"/>
</svg>
