<svg width="28" height="28" viewBox="0 0 28 28" fill="none" xmlns="http://www.w3.org/2000/svg">
<path d="M18.357 6.093L19.949 1.317C19.9993 1.16661 20.013 1.00642 19.9892 0.849653C19.9654 0.692886 19.9046 0.544036 19.8119 0.415387C19.7192 0.286738 19.5972 0.181978 19.4561 0.109753C19.3149 0.0375282 19.1586 -9.09358e-05 19 1.65067e-07H9C8.84143 -9.09358e-05 8.68511 0.0375282 8.54395 0.109753C8.40278 0.181978 8.28082 0.286738 8.18811 0.415387C8.09541 0.544036 8.03463 0.692886 8.01079 0.849653C7.98695 1.00642 8.00073 1.16661 8.051 1.317L9.643 6.093C6.98352 6.42577 4.53675 7.71723 2.76147 9.7252C0.986193 11.7332 0.00433532 14.3198 0 17V23C0.00158786 24.3256 0.528882 25.5964 1.46622 26.5338C2.40356 27.4711 3.67441 27.9984 5 28H23C24.3256 27.9984 25.5964 27.4711 26.5338 26.5338C27.4711 25.5964 27.9984 24.3256 28 23V17C27.9957 14.3198 27.0138 11.7332 25.2385 9.7252C23.4633 7.71723 21.0165 6.42577 18.357 6.093ZM13 16H15C15.7956 16 16.5587 16.3161 17.1213 16.8787C17.6839 17.4413 18 18.2044 18 19V20C18 20.7956 17.6839 21.5587 17.1213 22.1213C16.5587 22.6839 15.7956 23 15 23V24C15 24.2652 14.8946 24.5196 14.7071 24.7071C14.5196 24.8946 14.2652 25 14 25C13.7348 25 13.4804 24.8946 13.2929 24.7071C13.1054 24.5196 13 24.2652 13 24V23C12.2044 23 11.4413 22.6839 10.8787 22.1213C10.3161 21.5587 10 20.7956 10 20C10 19.7348 10.1054 19.4804 10.2929 19.2929C10.4804 19.1054 10.7348 19 11 19C11.2652 19 11.5196 19.1054 11.7071 19.2929C11.8946 19.4804 12 19.7348 12 20C12 20.2652 12.1054 20.5196 12.2929 20.7071C12.4804 20.8946 12.7348 21 13 21H15C15.2652 21 15.5196 20.8946 15.7071 20.7071C15.8946 20.5196 16 20.2652 16 20V19C16 18.7348 15.8946 18.4804 15.7071 18.2929C15.5196 18.1054 15.2652 18 15 18H13C12.2044 18 11.4413 17.6839 10.8787 17.1213C10.3161 16.5587 10 15.7956 10 15V14C10 13.2044 10.3161 12.4413 10.8787 11.8787C11.4413 11.3161 12.2044 11 13 11V10C13 9.73478 13.1054 9.48043 13.2929 9.29289C13.4804 9.10536 13.7348 9 14 9C14.2652 9 14.5196 9.10536 14.7071 9.29289C14.8946 9.48043 15 9.73478 15 10V11C15.7956 11 16.5587 11.3161 17.1213 11.8787C17.6839 12.4413 18 13.2044 18 14C18 14.2652 17.8946 14.5196 17.7071 14.7071C17.5196 14.8946 17.2652 15 17 15C16.7348 15 16.4804 14.8946 16.2929 14.7071C16.1054 14.5196 16 14.2652 16 14C16 13.7348 15.8946 13.4804 15.7071 13.2929C15.5196 13.1054 15.2652 13 15 13H13C12.7348 13 12.4804 13.1054 12.2929 13.2929C12.1054 13.4804 12 13.7348 12 14V15C12 15.2652 12.1054 15.5196 12.2929 15.7071C12.4804 15.8946 12.7348 16 13 16Z" fill="#292929"/>
</svg>
