<svg xmlns="http://www.w3.org/2000/svg" data-name="Layer 1" viewBox="0 0 24 24" x="0px" y="0px">
    <path d="M22,15.249a.75.75,0,0,0-.75.75v4A1.252,1.252,0,0,1,20,21.25H4A1.252,1.252,0,0,1,2.75,20V4A1.252,1.252,0,0,1,4,2.75h8a.75.75,0,0,0,0-1.5H4A2.752,2.752,0,0,0,1.25,4V20A2.752,2.752,0,0,0,4,22.75H20A2.752,2.752,0,0,0,22.75,20V16A.75.75,0,0,0,22,15.249Z"/>
    <path d="M20.9,2.691a2.756,2.756,0,0,0-3.89,0L7.343,12.354a1.747,1.747,0,0,0-.109.151.783.783,0,0,0-.129.086.737.737,0,0,0-.207.592,1.615,1.615,0,0,0-.051.163l-.66,4.619a.748.748,0,0,0,.742.856.765.765,0,0,0,.106-.007l4.62-.661a1.633,1.633,0,0,0,.164-.051.579.579,0,0,0,.06.012.744.744,0,0,0,.53-.22.666.666,0,0,0,.084-.127,1.814,1.814,0,0,0,.152-.108L22.309,8a2.751,2.751,0,0,0,0-3.889ZM7.813,17.188l.353-2.476,2.122,2.121ZM21.248,6.934,11.879,16.3,8.7,13.122l9.368-9.37a1.254,1.254,0,0,1,1.769,0l1.414,1.415a1.249,1.249,0,0,1,0,1.767Z"/>
</svg>