<svg width="97" height="97" viewBox="0 0 97 97" fill="none" xmlns="http://www.w3.org/2000/svg">
<path d="M77.8 69.9L81.3 71.9L81.4 71.7C86.3 64.9 88.9 56.8 88.9 48.3C89 37.4 84.9 27.2 77.3 19.6C69.7 11.9 59.6 7.69999 48.7 7.69999C26.5 7.69999 8.3 25.9 8.3 48.1C8.3 70.3 26.4 88.5 48.7 88.5C52.6 88.5 56.3 88 59.8 86.9L60 86.8L59.2 82.8L59.1 83C55.7 84 52.2 84.6 48.7 84.6C28.7 84.6 12.4 68.3 12.4 48.3C12.4 28.3 28.7 12 48.7 12C68.7 12 85 28.2 85 48.2C85 55.9 82.6 63.3 78 69.7L77.8 69.9Z" fill="black"/>
<path d="M82.9 14.5C73.8 5.29999 61.6 0.299988 48.7 0.299988C44.2 0.299988 39.9 0.899988 35.8 2.09999L35.6 2.19999L36.3 5.89999L36.6 5.79999C40.6 4.69999 44.7 4.09999 48.7 4.09999C73.2 4.09999 93.2 24 93.2 48.6C93.2 73.2 73.2 93 48.7 93C24.2 92.9 4.3 72.9 4.3 48.4C4.3 39.1 7.1 30.3 12.5 22.7L12.7 22.5L9.4 20.6L9.3 20.8C3.6 28.9 0.5 38.5 0.5 48.5C0.5 75 22.1 96.6 48.6 96.6C75.2 96.6 96.8 75 96.8 48.5C96.9 35.7 92 23.6 82.9 14.5Z" fill="black"/>
<path d="M44.8 63.7C44.7 64 44.7 64.4 44.7 64.7C44.7 66.9 46.5 68.7 48.7 68.7C50.9 68.7 52.7 66.9 52.7 64.7C52.7 64.3 52.6 64 52.6 63.7H44.8Z" fill="black"/>
<path d="M65 59.2C65 58.9 64.8 58.6 64.6 58.3C64.6 58.3 61.1 54.5 61.1 44.6C61.1 36.9 55.9 33.7 51.7 32.7V30.4C51.7 28.8 50.4 27.5 48.8 27.5C47.2 27.5 45.9 28.8 45.9 30.4V32.7C41.6 33.7 36.5 36.9 36.5 44.6C36.5 54.5 33 58.2 33 58.3C32.8 58.5 32.6 58.9 32.6 59.2V61.9H65V59.2Z" fill="black"/>
</svg>
