<svg width="62" height="51" viewBox="0 0 62 51" fill="none" xmlns="http://www.w3.org/2000/svg">
<path d="M51.3779 28.9302C51.4641 28.6336 51.6429 28.3722 51.8884 28.1846C52.1338 27.997 52.4329 27.893 52.7418 27.8877H53.7159C54.0947 25.9812 54.0947 24.0188 53.7159 22.1122H52.7418C52.4329 22.107 52.1338 22.0029 51.8884 21.8153C51.6429 21.6277 51.4641 21.3664 51.3779 21.0697C51.1544 20.367 50.8711 19.6848 50.5309 19.0306C50.3815 18.7596 50.3228 18.4478 50.3637 18.141C50.4045 17.8342 50.5427 17.5485 50.7578 17.3261L51.4505 16.6334C50.365 15.0217 48.9783 13.6351 47.3666 12.5496L46.6739 13.2423C46.4515 13.4574 46.1658 13.5955 45.8591 13.6364C45.5523 13.6772 45.2405 13.6185 44.9695 13.4691C44.3152 13.1289 43.633 12.8455 42.9303 12.6221C42.6336 12.5359 42.3723 12.357 42.1847 12.1116C41.9971 11.8661 41.893 11.567 41.8877 11.2581V10.2841C39.9812 9.90531 38.0189 9.90531 36.1124 10.2841V11.2581C36.1071 11.567 36.003 11.8661 35.8154 12.1116C35.6278 12.357 35.3665 12.5359 35.0698 12.6221C34.3671 12.8455 33.6849 13.1289 33.0306 13.4691C32.7596 13.6185 32.4478 13.6772 32.141 13.6364C31.8343 13.5955 31.5486 13.4574 31.3262 13.2423L30.6335 12.5496C29.0218 13.6351 27.6351 15.0217 26.5496 16.6334L27.2423 17.3261C27.4574 17.5485 27.5956 17.8342 27.6364 18.141C27.6773 18.4478 27.6186 18.7596 27.4692 19.0306C27.129 19.6848 26.8457 20.367 26.6222 21.0697C26.536 21.3664 26.3572 21.6277 26.1117 21.8153C25.8663 22.0029 25.5672 22.107 25.2583 22.1122H24.2842C23.9054 24.0188 23.9054 25.9812 24.2842 27.8877H25.2583C25.5672 27.893 25.8663 27.997 26.1117 28.1846C26.3572 28.3722 26.536 28.6336 26.6222 28.9302C26.8457 29.6329 27.129 30.3151 27.4692 30.9694C27.6186 31.2404 27.6773 31.5522 27.6364 31.859C27.5956 32.1658 27.4574 32.4514 27.2423 32.6739L26.5496 33.3666C27.6351 34.9782 29.0217 36.3649 30.6334 37.4504L31.3262 36.7578C31.5486 36.5426 31.8342 36.4045 32.141 36.3636C32.4478 36.3228 32.7596 36.3814 33.0306 36.5308C33.6849 36.871 34.3671 37.1544 35.0698 37.3779C35.3665 37.464 35.6278 37.6429 35.8154 37.8884C36.003 38.1338 36.1071 38.4329 36.1124 38.7418V39.7159C38.0188 40.0947 39.9813 40.0947 41.8877 39.7159V38.7418C41.893 38.4329 41.9971 38.1338 42.1847 37.8884C42.3723 37.6429 42.6336 37.464 42.9303 37.3779C43.633 37.1544 44.3152 36.871 44.9695 36.5308C45.2405 36.3814 45.5523 36.3228 45.8591 36.3636C46.1659 36.4045 46.4515 36.5426 46.6739 36.7578L47.3667 37.4504C48.9783 36.3649 50.365 34.9782 51.4505 33.3666L50.7578 32.6739C50.5427 32.4514 50.4045 32.1658 50.3637 31.859C50.3228 31.5522 50.3815 31.2404 50.5309 30.9694C50.8711 30.3151 51.1544 29.6329 51.3779 28.9302ZM39 34C37.22 34 35.4799 33.4722 33.9999 32.4832C32.5198 31.4943 31.3663 30.0887 30.6851 28.4442C30.0039 26.7996 29.8257 24.99 30.1729 23.2442C30.5202 21.4984 31.3774 19.8947 32.636 18.636C33.8947 17.3774 35.4984 16.5202 37.2442 16.1729C38.99 15.8257 40.7996 16.0039 42.4441 16.6851C44.0887 17.3663 45.4943 18.5198 46.4832 19.9999C47.4722 21.4799 48 23.22 48 25C48 27.387 47.0518 29.6761 45.364 31.364C43.6761 33.0518 41.3869 34 39 34Z" fill="black"/>
<path d="M20 25L13 19V22H0V28H13V31L20 25Z" fill="black"/>
<path d="M40.545 22.792L39 19.5L37.455 22.792L34 23.32L36.5 25.882L35.91 29.5L39 27.792L42.09 29.5L41.5 25.882L44 23.32L40.545 22.792Z" fill="black"/>
<path d="M41.8647 4.19434L42.1353 2.21191C41.0961 2.07089 40.0487 2.00009 39 2C34.1789 1.99527 29.4785 3.50709 25.5641 6.32143C21.6498 9.13577 18.7198 13.1101 17.189 17.6816L19.0855 18.3184C20.4831 14.1442 23.1583 10.5154 26.7323 7.94571C30.3063 5.37602 34.5981 3.99564 39 4C39.9582 4.00007 40.9153 4.065 41.8647 4.19434Z" fill="black"/>
<path d="M19.0854 31.6816L17.189 32.3184C18.3771 35.8663 20.4136 39.0705 23.1216 41.6524C25.8295 44.2344 29.127 46.116 32.7275 47.1338L33.2725 45.21C29.9849 44.2806 26.9741 42.5624 24.5017 40.2048C22.0292 37.8471 20.17 34.9213 19.0854 31.6816Z" fill="black"/>
<path d="M53.6367 7.25684L52.3633 8.79984C55.3185 11.2383 57.5505 14.4385 58.8177 18.0542C60.085 21.6699 60.3392 25.5634 59.5528 29.3132C58.7665 33.0629 56.9696 36.5262 54.3565 39.3282C51.7435 42.1302 48.4139 44.1642 44.728 45.21L45.2719 47.1338C49.3089 45.9888 52.9559 43.7614 55.818 40.6927C58.6802 37.6241 60.6485 33.8311 61.51 29.7242C62.3714 25.6173 62.0932 21.3531 60.7055 17.3929C59.3177 13.4328 56.8733 9.92762 53.6367 7.25684Z" fill="black"/>
<path d="M47.9994 8.59973C50.2085 8.59973 51.9994 6.80887 51.9994 4.59973C51.9994 2.39059 50.2085 0.599731 47.9994 0.599731C45.7903 0.599731 43.9994 2.39059 43.9994 4.59973C43.9994 6.80887 45.7903 8.59973 47.9994 8.59973Z" fill="black"/>
<path d="M39 51C41.2091 51 43 49.2091 43 47C43 44.7909 41.2091 43 39 43C36.7909 43 35 44.7909 35 47C35 49.2091 36.7909 51 39 51Z" fill="black"/>
</svg>
