<svg width="28" height="28" viewBox="0 0 28 28" fill="none" xmlns="http://www.w3.org/2000/svg">
<path fill-rule="evenodd" clip-rule="evenodd" d="M0.564813 0H5.873C6.18362 0 6.43781 0.254188 6.43781 0.564813V5.873C6.43781 6.18406 6.18362 6.43781 5.873 6.43781H0.564813C0.25375 6.43781 0 6.18406 0 5.873V0.564813C0 0.254188 0.25375 0 0.564813 0ZM10.0669 25.6191H23.0751C23.2619 25.6191 23.4141 25.7714 23.4141 25.9578V26.6757C23.4141 26.8625 23.2619 27.0148 23.0751 27.0148H10.0669C9.8805 27.0148 9.72781 26.8625 9.72781 26.6757V25.9578C9.72781 25.7714 9.8805 25.6191 10.0669 25.6191ZM10.0669 22.547H27.6609C27.8477 22.547 28 22.6997 28 22.8861V23.604C28 23.7904 27.8477 23.9431 27.6609 23.9431H10.0669C9.88006 23.9431 9.72781 23.7904 9.72781 23.604V22.8861C9.72781 22.6997 9.88006 22.547 10.0669 22.547ZM10.0669 14.8378H23.0751C23.2619 14.8378 23.4141 14.9901 23.4141 15.1769V15.8948C23.4141 16.0812 23.2619 16.2334 23.0751 16.2334H10.0669C9.8805 16.2334 9.72781 16.0812 9.72781 15.8948V15.1769C9.72781 14.9901 9.8805 14.8378 10.0669 14.8378ZM10.0669 11.7661H27.6609C27.8477 11.7661 28 11.9184 28 12.1052V12.8231C28 13.0095 27.8477 13.1617 27.6609 13.1617H10.0669C9.88006 13.1617 9.72781 13.0095 9.72781 12.8231V12.1052C9.72781 11.9184 9.88006 11.7661 10.0669 11.7661ZM10.0669 4.05694H23.0751C23.2619 4.05694 23.4141 4.20919 23.4141 4.396V5.11394C23.4141 5.30031 23.2619 5.45256 23.0751 5.45256H10.0669C9.8805 5.45256 9.72781 5.30031 9.72781 5.11394V4.396C9.72781 4.20919 9.8805 4.05694 10.0669 4.05694ZM10.0669 0.98525H27.6609C27.8477 0.98525 28 1.1375 28 1.32387V2.04181C28 2.22862 27.8477 2.38088 27.6609 2.38088H10.0669C9.88006 2.38088 9.72781 2.22862 9.72781 2.04181V1.32387C9.72781 1.1375 9.88006 0.98525 10.0669 0.98525ZM0.564813 21.5622H5.873C6.18362 21.5622 6.43781 21.8159 6.43781 22.127V27.4352C6.43781 27.7463 6.18362 28 5.873 28H0.564813C0.25375 28 0 27.7463 0 27.4352V22.127C0 21.8159 0.25375 21.5622 0.564813 21.5622ZM0.564813 10.7809H5.873C6.18362 10.7809 6.43781 11.0351 6.43781 11.3457V16.6543C6.43781 16.9649 6.18362 17.2191 5.873 17.2191H0.564813C0.25375 17.2191 0 16.9649 0 16.6543V11.3457C0 11.0351 0.25375 10.7809 0.564813 10.7809Z" fill="#292929"/>
</svg>
