<svg width="62" height="50" viewBox="0 0 62 50" fill="none" xmlns="http://www.w3.org/2000/svg">
<path d="M20.1124 40.6628C22.0189 41.0417 23.9813 41.0417 25.8878 40.6628V39.6888C25.893 39.3799 25.9971 39.0808 26.1847 38.8353C26.3723 38.5898 26.6336 38.4109 26.9303 38.3248C27.633 38.1013 28.3153 37.818 28.9695 37.4778C29.2405 37.3283 29.5523 37.2697 29.8591 37.3106C30.1659 37.3514 30.4515 37.4896 30.674 37.7047L31.3667 38.3973C32.9784 37.3119 34.3651 35.9252 35.4505 34.3135L34.7578 33.6208C34.5427 33.3984 34.4045 33.1127 34.3637 32.8059C34.3229 32.4991 34.3815 32.1873 34.531 31.9163C34.8711 31.2621 35.1545 30.5799 35.378 29.8772C35.4641 29.5805 35.643 29.3192 35.8884 29.1316C36.1339 28.944 36.433 28.8399 36.7419 28.8347H37.716C38.0947 26.9281 38.0947 24.9657 37.7159 23.0592H36.7419C36.433 23.0539 36.1339 22.9499 35.8884 22.7623C35.643 22.5747 35.4641 22.3134 35.378 22.0167C35.1545 21.314 34.8711 20.6318 34.531 19.9775C34.3815 19.7065 34.3229 19.3947 34.3637 19.0879C34.4046 18.7811 34.5427 18.4955 34.7578 18.273L35.4505 17.5803C34.365 15.9687 32.9783 14.582 31.3667 13.4965L30.674 14.1892C30.4515 14.4044 30.1659 14.5425 29.8591 14.5833C29.5523 14.6241 29.2405 14.5655 28.9695 14.416C28.3153 14.0759 27.633 13.7925 26.9303 13.569C26.6336 13.4829 26.3723 13.304 26.1847 13.0585C25.9971 12.813 25.893 12.5139 25.8878 12.205V11.231C23.9813 10.8523 22.0189 10.8523 20.1124 11.231V12.2051C20.1071 12.514 20.0031 12.8131 19.8155 13.0585C19.6279 13.304 19.3665 13.4829 19.0698 13.5691C18.3671 13.7925 17.6849 14.0759 17.0307 14.4161C16.7597 14.5655 16.4479 14.6242 16.1411 14.5834C15.8343 14.5425 15.5487 14.4044 15.3262 14.1893L14.6335 13.4966C13.0219 14.5821 11.6352 15.9687 10.5496 17.5804L11.2423 18.2731C11.4575 18.4955 11.5956 18.7812 11.6364 19.088C11.6773 19.3948 11.6187 19.7066 11.4692 19.9776C11.1291 20.6318 10.8457 21.314 10.6222 22.0167C10.5361 22.3134 10.3572 22.5747 10.1117 22.7623C9.8663 22.9499 9.56721 23.054 9.25831 23.0592H8.2842C7.9054 24.9658 7.90538 26.9282 8.28414 28.8347H9.25826C9.56716 28.84 9.86625 28.944 10.1117 29.1316C10.3571 29.3192 10.536 29.5805 10.6222 29.8772C10.8456 30.5799 11.129 31.2621 11.4692 31.9164C11.6186 32.1874 11.6772 32.4992 11.6364 32.806C11.5956 33.1128 11.4574 33.3984 11.2423 33.6209L10.5496 34.3136C11.635 35.9252 13.0217 37.3119 14.6334 38.3974L15.3261 37.7048C15.5486 37.4896 15.8342 37.3515 16.141 37.3106C16.4478 37.2698 16.7596 37.3284 17.0306 37.4778C17.6848 37.818 18.3671 38.1014 19.0698 38.3248C19.3665 38.411 19.6278 38.5899 19.8154 38.8353C20.003 39.0808 20.1071 39.3799 20.1123 39.6888L20.1124 40.6628ZM14.0001 25.947C14.0001 24.167 14.5279 22.4269 15.5169 20.9469C16.5058 19.4668 17.9114 18.3133 19.5559 17.6321C21.2005 16.9509 23.0101 16.7727 24.7559 17.1199C26.5017 17.4672 28.1054 18.3244 29.364 19.583C30.6227 20.8417 31.4799 22.4454 31.8272 24.1912C32.1744 25.937 31.9962 27.7466 31.315 29.3912C30.6338 31.0357 29.4803 32.4413 28.0002 33.4302C26.5202 34.4192 24.7801 34.947 23.0001 34.947C20.6131 34.947 18.324 33.9988 16.6361 32.311C14.9483 30.6231 14.0001 28.334 14.0001 25.947Z" fill="black"/>
<path d="M55.0001 23H44.0001V29H55.0001V32L62.0001 26L55.0001 20V23Z" fill="black"/>
<path d="M23.0001 28.739L26.0901 30.447L25.5001 26.829L28.0001 24.267L24.5451 23.739L23.0001 20.447L21.4551 23.739L18.0001 24.267L20.5001 26.829L19.9101 30.447L23.0001 28.739Z" fill="black"/>
<path d="M23.0001 47C22.0419 46.9999 21.0848 46.935 20.1353 46.8057L19.8648 48.7881C20.904 48.9291 21.9514 48.9999 23.0001 49C27.8212 49.0047 32.5216 47.4929 36.436 44.6786C40.3503 41.8642 43.2803 37.8899 44.8111 33.3184L42.9146 32.6816C41.517 36.8558 38.8418 40.4846 35.2678 43.0543C31.6938 45.624 27.402 47.0044 23.0001 47Z" fill="black"/>
<path d="M42.9146 19.3184L44.8111 18.6816C43.623 15.1337 41.5865 11.9295 38.8785 9.34758C36.1706 6.76563 32.8731 4.88401 29.2725 3.86621L28.7276 5.79C32.0151 6.71939 35.026 8.43758 37.4984 10.7952C39.9709 13.1529 41.8301 16.0787 42.9146 19.3184Z" fill="black"/>
<path d="M2.00008 26C2.01095 21.4311 3.50628 16.9896 6.2608 13.3444C9.01531 9.69926 12.8798 7.04797 17.2721 5.79L16.7281 3.86621C12.6911 5.01125 9.04413 7.23864 6.18198 10.3073C3.31983 13.376 1.3515 17.169 0.490025 21.2759C-0.371448 25.3827 -0.0932477 29.647 1.29452 33.6072C2.68228 37.5673 5.12674 41.0724 8.36333 43.7432L9.63677 42.2002C7.24539 40.2324 5.32013 37.7588 3.99962 34.9575C2.6791 32.1562 1.9962 29.0969 2.00008 26Z" fill="black"/>
<path d="M14.0001 50C16.2092 50 18.0001 48.2091 18.0001 46C18.0001 43.7909 16.2092 42 14.0001 42C11.7909 42 10.0001 43.7909 10.0001 46C10.0001 48.2091 11.7909 50 14.0001 50Z" fill="black"/>
<path d="M23.0001 8C25.2092 8 27.0001 6.20914 27.0001 4C27.0001 1.79086 25.2092 0 23.0001 0C20.7909 0 19.0001 1.79086 19.0001 4C19.0001 6.20914 20.7909 8 23.0001 8Z" fill="black"/>
</svg>
