<svg width="77" height="14" viewBox="0 0 77 14" fill="none" xmlns="http://www.w3.org/2000/svg">
    <path
        d="M49.3601 5.6923H44.6442C44.7228 6.08529 44.8014 6.39969 44.8014 6.79268C44.8014 7.18568 44.7228 7.57867 44.6442 7.89307H49.3601C49.2815 7.50007 49.2029 7.18568 49.2029 6.79268C49.2029 6.39969 49.2815 6.08529 49.3601 5.6923Z"
        fill="#292929" />
    <path
        d="M14.5408 6.79268C14.5408 9.38644 12.4186 11.5086 9.82485 11.5086C7.23109 11.5086 5.10892 9.38644 5.10892 6.79268C5.10892 4.19892 7.23109 2.07675 9.82485 2.07675C12.4186 2.07675 14.5408 4.19892 14.5408 6.79268ZM9.74625 5.0635C8.72447 5.0635 7.93848 5.84949 7.93848 6.87128C7.93848 7.89306 8.72447 8.67905 9.74625 8.67905C10.768 8.67905 11.554 7.89306 11.554 6.87128C11.554 5.84949 10.768 5.0635 9.74625 5.0635Z"
        fill="#292929" />
    <path
        d="M29.3959 6.79268C29.3959 9.38644 27.2737 11.5086 24.68 11.5086C22.0862 11.5086 19.964 9.38644 19.964 6.79268C19.964 4.19892 22.0862 2.07675 24.68 2.07675C27.2737 2.07675 29.3959 4.19892 29.3959 6.79268ZM24.68 5.0635C23.6582 5.0635 22.8722 5.84949 22.8722 6.87128C22.8722 7.89306 23.6582 8.67905 24.68 8.67905C25.7017 8.67905 26.4877 7.89306 26.4877 6.87128C26.4091 5.84949 25.6231 5.0635 24.68 5.0635Z"
        fill="#292929" />
    <path
        d="M44.2512 6.79268C44.2512 9.38644 42.129 11.5086 39.5353 11.5086C36.9415 11.5086 34.8193 9.38644 34.8193 6.79268C34.8193 4.19892 36.9415 2.07675 39.5353 2.07675C42.129 2.07675 44.2512 4.19892 44.2512 6.79268ZM39.5353 5.0635C38.5135 5.0635 37.7275 5.84949 37.7275 6.87128C37.7275 7.89306 38.5135 8.67905 39.5353 8.67905C40.557 8.67905 41.343 7.89306 41.343 6.87128C41.343 5.84949 40.4784 5.0635 39.5353 5.0635Z"
        fill="#292929" />
    <path
        d="M59.185 6.79268C59.185 9.38644 57.0628 11.5086 54.469 11.5086C51.8753 11.5086 49.7531 9.38644 49.7531 6.79268C49.7531 4.19892 51.8753 2.07675 54.469 2.07675C57.0628 2.07675 59.185 4.19892 59.185 6.79268ZM54.3904 5.0635C53.3686 5.0635 52.5827 5.84949 52.5827 6.87128C52.5827 7.89306 53.3686 8.67905 54.3904 8.67905C55.4122 8.67905 56.1982 7.89306 56.1982 6.87128C56.1982 5.84949 55.4122 5.0635 54.3904 5.0635Z"
        fill="#292929" />
    <path
        d="M4.55873 6.79268C4.55873 6.39969 4.63733 6.00669 4.71593 5.6923H0V7.89307H4.63733C4.63733 7.57867 4.55873 7.18568 4.55873 6.79268Z"
        fill="#292929" />
    <path
        d="M19.571 7.89307C19.4924 7.50007 19.4138 7.18568 19.4138 6.79268C19.4138 6.39969 19.4924 6.00669 19.571 5.6923H14.8551C14.9337 6.08529 15.0123 6.39969 15.0123 6.79268C15.0123 7.18568 14.9337 7.57867 14.8551 7.89307H19.571Z"
        fill="#292929" />
    <path
        d="M34.4261 5.6923H29.7102C29.7888 6.08529 29.8674 6.39969 29.8674 6.79268C29.8674 7.18568 29.7888 7.57867 29.7102 7.89307H34.4261C34.3475 7.50007 34.2689 7.18568 34.2689 6.79268C34.2689 6.39969 34.3475 6.08529 34.4261 5.6923Z"
        fill="#292929" />
    <path
        d="M65.8659 0.11179L76.1623 6.0853C76.7125 6.39969 76.7125 7.18569 76.1623 7.50008L65.8659 13.4736C65.3157 13.788 64.6869 13.395 64.6869 12.7662V0.74058C64.6869 0.190388 65.3157 -0.202606 65.8659 0.11179Z"
        fill="#292929" />
    <path
        d="M59.4993 5.6923C59.5779 6.08529 59.6565 6.39969 59.6565 6.79268C59.6565 7.18568 59.5779 7.57867 59.4993 7.89307H63.9794V5.6923H59.4993Z"
        fill="#292929" />
</svg>