<svg width="26" height="26" viewBox="0 0 26 26" fill="none" xmlns="http://www.w3.org/2000/svg">
<path d="M13.0001 0C11.1271 0 9.60876 1.51834 9.60876 3.3913V9.60863H3.3913C1.51834 9.60863 0 11.127 0 12.9999C0 14.8729 1.51834 16.3912 3.3913 16.3912H9.60876V22.6087C9.60876 24.4817 11.1271 26 13.0001 26C14.873 26 16.3914 24.4817 16.3914 22.6087V16.3912H22.6087C24.4817 16.3912 26 14.8729 26 12.9999C26 11.127 24.4817 9.60863 22.6087 9.60863H16.3914V3.3913C16.3914 1.51834 14.873 0 13.0001 0Z" fill="#292929"/>
</svg>
