<svg width="55" height="55" viewBox="0 0 55 55" fill="none" xmlns="http://www.w3.org/2000/svg">
<path d="M27.63 35.71C27.4 34.98 27.11 34.27 26.76 33.6L28.43 31.93C28.82 31.54 28.82 30.91 28.43 30.52L24.49 26.58C24.1 26.19 23.47 26.19 23.08 26.58L21.41 28.25C20.73 27.89 20.03 27.6 19.3 27.38V25.01C19.3 24.46 18.85 24.01 18.3 24.01H12.72C12.17 24.01 11.72 24.46 11.72 25.01V27.38C10.99 27.61 10.28 27.9 9.61002 28.25L7.94002 26.58C7.55002 26.19 6.92002 26.19 6.53002 26.58L2.59002 30.52C2.20002 30.91 2.20002 31.54 2.59002 31.93L4.26002 33.6C3.90002 34.28 3.61002 34.98 3.39002 35.71H1.02002C0.47002 35.71 0.0200195 36.16 0.0200195 36.71V42.29C0.0200195 42.84 0.47002 43.29 1.02002 43.29H3.39002C3.62002 44.02 3.91002 44.73 4.26002 45.4L2.59002 47.07C2.20002 47.46 2.20002 48.09 2.59002 48.48L6.53002 52.42C6.73002 52.62 6.98002 52.71 7.24002 52.71C7.50002 52.71 7.75002 52.61 7.95002 52.42L9.62002 50.75C10.3 51.11 11 51.4 11.73 51.62V53.99C11.73 54.54 12.18 54.99 12.73 54.99H18.31C18.86 54.99 19.31 54.54 19.31 53.99V51.62C20.04 51.39 20.75 51.1 21.42 50.75L23.09 52.42C23.29 52.62 23.54 52.71 23.8 52.71C24.06 52.71 24.31 52.61 24.51 52.42L28.45 48.48C28.84 48.09 28.84 47.46 28.45 47.07L26.78 45.4C27.14 44.72 27.43 44.02 27.65 43.29H30.02C30.57 43.29 31.02 42.84 31.02 42.29V36.71C31.02 36.16 30.57 35.71 30.02 35.71H27.63ZM29 41.29H26.88C26.88 41.29 26.83 41.3 26.8 41.31C26.74 41.31 26.68 41.33 26.62 41.35C26.55 41.37 26.49 41.39 26.43 41.42C26.38 41.45 26.33 41.48 26.29 41.52C26.24 41.56 26.19 41.6 26.14 41.66C26.1 41.71 26.07 41.76 26.04 41.81C26.01 41.87 25.98 41.93 25.95 41.99C25.95 42.02 25.92 42.04 25.92 42.06C25.66 43.12 25.25 44.13 24.68 45.06C24.67 45.08 24.66 45.11 24.65 45.14C24.62 45.2 24.6 45.26 24.58 45.33C24.56 45.39 24.55 45.45 24.54 45.52C24.54 45.58 24.54 45.64 24.54 45.7C24.54 45.77 24.56 45.83 24.58 45.89C24.6 45.95 24.63 46 24.65 46.05C24.68 46.11 24.72 46.17 24.77 46.23C24.79 46.25 24.79 46.28 24.81 46.29L26.31 47.79L23.78 50.32L22.28 48.82C22.28 48.82 22.24 48.79 22.22 48.78C22.16 48.73 22.11 48.7 22.04 48.66C21.99 48.63 21.94 48.6 21.88 48.59C21.82 48.57 21.76 48.56 21.69 48.55C21.63 48.55 21.57 48.54 21.5 48.55C21.44 48.55 21.38 48.57 21.32 48.59C21.25 48.61 21.19 48.63 21.13 48.66C21.1 48.67 21.08 48.67 21.05 48.69C20.12 49.26 19.11 49.68 18.05 49.93C18.02 49.93 18 49.96 17.98 49.96C17.92 49.98 17.86 50.01 17.8 50.04C17.74 50.07 17.69 50.1 17.64 50.15C17.59 50.19 17.55 50.24 17.51 50.29C17.47 50.34 17.43 50.39 17.4 50.45C17.37 50.5 17.35 50.56 17.34 50.62C17.32 50.69 17.31 50.75 17.3 50.82C17.3 50.85 17.28 50.87 17.28 50.9V53.02H13.7V50.9C13.7 50.9 13.69 50.85 13.68 50.82C13.68 50.75 13.66 50.69 13.64 50.62C13.62 50.56 13.6 50.5 13.58 50.45C13.55 50.39 13.51 50.34 13.47 50.29C13.43 50.24 13.39 50.19 13.34 50.15C13.29 50.11 13.24 50.08 13.18 50.04C13.12 50.01 13.06 49.98 13 49.96C12.97 49.96 12.95 49.93 12.93 49.93C11.87 49.67 10.86 49.26 9.93002 48.69C9.91002 48.68 9.88002 48.67 9.85002 48.66C9.79002 48.63 9.73002 48.61 9.66002 48.59C9.60002 48.57 9.54002 48.56 9.48002 48.55C9.42002 48.55 9.36002 48.55 9.29002 48.55C9.22002 48.55 9.16002 48.57 9.10002 48.59C9.04002 48.61 8.99002 48.64 8.94002 48.66C8.88002 48.69 8.82002 48.73 8.76002 48.78C8.74002 48.8 8.71002 48.8 8.70002 48.82L7.20002 50.32L4.67002 47.79L6.17002 46.29C6.17002 46.29 6.20002 46.25 6.21002 46.23C6.26002 46.17 6.29002 46.12 6.33002 46.05C6.36002 46 6.39002 45.95 6.40002 45.89C6.42002 45.83 6.43002 45.76 6.44002 45.7C6.44002 45.64 6.45002 45.58 6.44002 45.52C6.44002 45.46 6.42002 45.4 6.40002 45.33C6.38002 45.27 6.36002 45.2 6.33002 45.14C6.32002 45.11 6.32002 45.09 6.30002 45.06C5.73002 44.13 5.31002 43.12 5.06002 42.06C5.06002 42.03 5.03002 42.01 5.03002 41.99C5.01002 41.92 4.98002 41.87 4.94002 41.81C4.91002 41.76 4.88002 41.71 4.84002 41.66C4.80002 41.61 4.75002 41.57 4.69002 41.53C4.64002 41.49 4.59002 41.46 4.54002 41.43C4.48002 41.4 4.42002 41.38 4.36002 41.36C4.30002 41.34 4.23002 41.33 4.16002 41.32C4.13002 41.32 4.11002 41.3 4.08002 41.3H1.96002V37.72H4.08002C4.21002 37.72 4.33002 37.69 4.44002 37.65C4.48002 37.63 4.51002 37.61 4.55002 37.59C4.62002 37.55 4.69002 37.51 4.75002 37.46C4.78002 37.43 4.81002 37.4 4.84002 37.36C4.89002 37.3 4.93002 37.24 4.96002 37.18C4.98002 37.14 5.00002 37.09 5.02002 37.05C5.03002 37.02 5.05002 37 5.06002 36.96C5.32002 35.9 5.73002 34.89 6.30002 33.96C6.31002 33.94 6.32002 33.91 6.33002 33.88C6.36002 33.82 6.38002 33.76 6.40002 33.69C6.42002 33.63 6.43002 33.57 6.44002 33.5C6.44002 33.44 6.44002 33.38 6.44002 33.32C6.44002 33.25 6.42002 33.19 6.40002 33.13C6.38002 33.07 6.36002 33.02 6.33002 32.97C6.30002 32.91 6.26002 32.85 6.21002 32.79C6.19002 32.77 6.19002 32.74 6.17002 32.73L4.67002 31.23L7.20002 28.7L8.70002 30.2C8.79002 30.29 8.89002 30.35 9.00002 30.4C9.02002 30.41 9.05002 30.42 9.07002 30.43C9.18002 30.47 9.29002 30.5 9.41002 30.5C9.53002 30.5 9.63002 30.47 9.74002 30.43C9.77002 30.42 9.80002 30.41 9.83002 30.39C9.86002 30.37 9.90002 30.37 9.93002 30.35C10.86 29.78 11.87 29.36 12.93 29.11C12.96 29.11 12.98 29.08 13 29.08C13.07 29.06 13.12 29.03 13.18 29C13.24 28.97 13.29 28.94 13.34 28.89C13.39 28.85 13.43 28.8 13.47 28.75C13.51 28.7 13.55 28.65 13.58 28.59C13.61 28.54 13.63 28.48 13.64 28.42C13.66 28.35 13.67 28.29 13.68 28.22C13.68 28.19 13.7 28.17 13.7 28.14V26.02H17.28V28.14C17.28 28.14 17.29 28.19 17.3 28.22C17.3 28.29 17.32 28.35 17.34 28.42C17.36 28.48 17.38 28.54 17.4 28.59C17.43 28.65 17.47 28.7 17.51 28.75C17.55 28.8 17.59 28.85 17.64 28.89C17.69 28.93 17.74 28.96 17.8 29C17.86 29.03 17.92 29.06 17.98 29.08C18.01 29.08 18.03 29.11 18.05 29.11C19.11 29.37 20.12 29.78 21.05 30.35C21.08 30.37 21.12 30.38 21.15 30.39C21.18 30.4 21.21 30.42 21.24 30.43C21.35 30.47 21.46 30.5 21.57 30.5C21.68 30.5 21.8 30.47 21.91 30.43C21.93 30.43 21.96 30.41 21.98 30.4C22.09 30.35 22.19 30.29 22.28 30.2L23.78 28.7L26.31 31.23L24.81 32.73C24.81 32.73 24.78 32.77 24.77 32.79C24.72 32.85 24.69 32.9 24.65 32.97C24.62 33.02 24.59 33.07 24.58 33.13C24.56 33.19 24.55 33.26 24.54 33.32C24.54 33.38 24.53 33.44 24.54 33.5C24.54 33.56 24.56 33.62 24.58 33.69C24.6 33.75 24.62 33.82 24.65 33.88C24.66 33.91 24.66 33.93 24.68 33.96C25.25 34.89 25.67 35.9 25.92 36.96C25.92 36.99 25.95 37.02 25.96 37.05C25.98 37.1 26 37.14 26.02 37.18C26.05 37.25 26.1 37.31 26.14 37.36C26.17 37.4 26.2 37.43 26.23 37.46C26.29 37.51 26.36 37.55 26.43 37.59C26.47 37.61 26.5 37.63 26.54 37.65C26.65 37.69 26.77 37.72 26.9 37.72H29.02V41.3L29 41.29Z" fill="black"/>
<path d="M15.5 32.59C11.69 32.59 8.59002 35.69 8.59002 39.5C8.59002 43.31 11.69 46.41 15.5 46.41C19.31 46.41 22.41 43.31 22.41 39.5C22.41 35.69 19.31 32.59 15.5 32.59ZM15.5 44.41C12.79 44.41 10.59 42.21 10.59 39.5C10.59 36.79 12.79 34.59 15.5 34.59C18.21 34.59 20.41 36.79 20.41 39.5C20.41 42.21 18.21 44.41 15.5 44.41Z" fill="black"/>
<path d="M1.06002 24.75C1.30002 24.75 1.55002 24.66 1.74002 24.48C3.96002 22.4 6.62002 20.87 9.50002 19.95L8.93002 20.7C8.60002 21.14 8.69002 21.77 9.13002 22.1C9.31002 22.24 9.52002 22.3 9.73002 22.3C10.03 22.3 10.33 22.16 10.53 21.9L12.8 18.89C12.8 18.89 12.8 18.88 12.8 18.87C12.82 18.84 12.83 18.81 12.85 18.79C12.88 18.75 12.91 18.71 12.93 18.66C12.93 18.64 12.93 18.62 12.94 18.59C12.94 18.56 12.96 18.54 12.97 18.52C12.98 18.48 12.97 18.43 12.97 18.39C12.97 18.33 12.98 18.27 12.97 18.21C12.97 18.18 12.97 18.16 12.97 18.13C12.97 18.13 12.97 18.12 12.97 18.11C12.97 18.07 12.94 18.05 12.93 18.01C12.91 17.95 12.9 17.9 12.87 17.84C12.86 17.81 12.85 17.79 12.83 17.76C12.81 17.72 12.77 17.69 12.75 17.66C12.71 17.62 12.68 17.57 12.63 17.54C12.61 17.52 12.6 17.5 12.58 17.49C12.58 17.49 12.58 17.49 12.57 17.49C12.53 17.46 12.49 17.45 12.44 17.43C12.41 17.41 12.39 17.39 12.35 17.37L8.86002 15.96C8.35002 15.75 7.77002 16 7.56002 16.51C7.35002 17.02 7.60002 17.6 8.11002 17.81L8.76002 18.07C5.63002 19.08 2.76002 20.76 0.34002 23.01C-0.0599804 23.39 -0.0899806 24.02 0.290019 24.42C0.490019 24.63 0.750019 24.74 1.02002 24.74L1.06002 24.75Z" fill="black"/>
<path d="M51.46 28.48C51.32 28.07 51.16 27.68 50.97 27.3L52.06 26.21C52.25 26.02 52.35 25.77 52.35 25.5C52.35 25.23 52.24 24.98 52.06 24.79L49.2 21.93C48.81 21.54 48.18 21.54 47.79 21.93L46.7 23.02C46.32 22.83 45.92 22.67 45.52 22.53V20.99C45.52 20.44 45.07 19.99 44.52 19.99H40.48C39.93 19.99 39.48 20.44 39.48 20.99V22.53C39.07 22.67 38.68 22.83 38.3 23.02L37.21 21.93C36.82 21.54 36.19 21.54 35.8 21.93L32.94 24.79C32.75 24.98 32.65 25.23 32.65 25.5C32.65 25.77 32.76 26.02 32.94 26.21L34.03 27.3C33.84 27.68 33.68 28.08 33.54 28.48H32C31.45 28.48 31 28.93 31 29.48V33.52C31 34.07 31.45 34.52 32 34.52H33.54C33.68 34.93 33.84 35.32 34.03 35.7L32.94 36.79C32.75 36.98 32.65 37.23 32.65 37.5C32.65 37.77 32.76 38.02 32.94 38.21L35.8 41.07C36 41.27 36.25 41.36 36.51 41.36C36.77 41.36 37.02 41.26 37.22 41.07L38.31 39.98C38.69 40.17 39.09 40.33 39.49 40.47V42.01C39.49 42.56 39.94 43.01 40.49 43.01H44.53C45.08 43.01 45.53 42.56 45.53 42.01V40.47C45.94 40.33 46.33 40.17 46.71 39.98L47.8 41.07C48 41.27 48.25 41.36 48.51 41.36C48.77 41.36 49.02 41.26 49.22 41.07L52.08 38.21C52.27 38.02 52.37 37.77 52.37 37.5C52.37 37.23 52.26 36.98 52.08 36.79L50.99 35.7C51.18 35.32 51.34 34.92 51.48 34.52H53.02C53.57 34.52 54.02 34.07 54.02 33.52V29.48C54.02 28.93 53.57 28.48 53.02 28.48H51.46ZM52 32.52H50.74C50.74 32.52 50.69 32.53 50.66 32.54C50.59 32.54 50.53 32.56 50.47 32.58C50.4 32.6 50.34 32.62 50.28 32.65C50.23 32.68 50.18 32.71 50.13 32.75C50.08 32.79 50.03 32.83 49.98 32.88C49.94 32.93 49.91 32.98 49.88 33.03C49.84 33.09 49.81 33.15 49.79 33.22C49.79 33.25 49.76 33.27 49.76 33.29C49.58 34.03 49.29 34.73 48.89 35.38C48.88 35.4 48.87 35.43 48.86 35.46C48.83 35.52 48.81 35.58 48.79 35.65C48.77 35.71 48.76 35.77 48.75 35.83C48.75 35.89 48.75 35.95 48.75 36.02C48.75 36.09 48.77 36.15 48.79 36.21C48.81 36.27 48.84 36.32 48.87 36.37C48.9 36.43 48.94 36.49 48.98 36.54C49 36.56 49 36.59 49.02 36.61L49.91 37.5L48.47 38.94L47.58 38.05C47.58 38.05 47.53 38.02 47.51 38.01C47.46 37.96 47.4 37.93 47.34 37.9C47.29 37.87 47.23 37.84 47.18 37.83C47.12 37.81 47.05 37.8 46.99 37.79C46.93 37.79 46.87 37.78 46.81 37.79C46.74 37.79 46.68 37.81 46.62 37.83C46.56 37.85 46.5 37.87 46.44 37.9C46.41 37.91 46.39 37.91 46.36 37.93C45.71 38.33 45.01 38.62 44.27 38.8C44.24 38.8 44.22 38.83 44.2 38.83C44.13 38.85 44.07 38.88 44.02 38.92C43.97 38.95 43.91 38.98 43.87 39.02C43.82 39.06 43.78 39.11 43.74 39.16C43.7 39.21 43.66 39.26 43.64 39.31C43.61 39.37 43.59 39.42 43.57 39.49C43.55 39.55 43.54 39.62 43.53 39.69C43.53 39.72 43.51 39.74 43.51 39.77V41.03H41.47V39.77C41.47 39.77 41.46 39.72 41.45 39.69C41.45 39.62 41.43 39.56 41.41 39.49C41.39 39.43 41.37 39.37 41.34 39.31C41.31 39.25 41.27 39.21 41.24 39.16C41.2 39.11 41.16 39.06 41.11 39.02C41.06 38.98 41.01 38.95 40.96 38.92C40.9 38.89 40.84 38.86 40.78 38.83C40.75 38.83 40.73 38.8 40.71 38.8C39.97 38.62 39.27 38.33 38.62 37.93C38.6 37.91 38.57 37.91 38.54 37.9C38.48 37.87 38.42 37.85 38.35 37.83C38.29 37.81 38.23 37.8 38.16 37.79C38.1 37.79 38.04 37.79 37.98 37.79C37.91 37.79 37.85 37.81 37.78 37.83C37.72 37.85 37.67 37.87 37.62 37.9C37.56 37.93 37.5 37.97 37.44 38.02C37.42 38.04 37.39 38.04 37.38 38.06L36.49 38.95L35.05 37.51L35.94 36.62C35.94 36.62 35.97 36.57 35.98 36.55C36.03 36.5 36.06 36.44 36.09 36.38C36.12 36.33 36.15 36.27 36.17 36.22C36.19 36.16 36.2 36.1 36.21 36.03C36.21 35.97 36.22 35.91 36.21 35.84C36.21 35.78 36.19 35.72 36.17 35.66C36.15 35.59 36.13 35.53 36.1 35.47C36.09 35.45 36.09 35.42 36.07 35.39C35.67 34.74 35.38 34.04 35.2 33.3C35.2 33.27 35.17 33.25 35.17 33.23C35.15 33.16 35.12 33.1 35.08 33.04C35.05 32.99 35.02 32.93 34.98 32.89C34.94 32.84 34.89 32.8 34.84 32.76C34.79 32.72 34.74 32.69 34.69 32.66C34.63 32.63 34.57 32.61 34.51 32.59C34.45 32.57 34.39 32.56 34.32 32.55C34.29 32.55 34.27 32.53 34.24 32.53H32.98V30.49H34.24C34.37 30.49 34.49 30.46 34.6 30.42C34.64 30.4 34.67 30.38 34.71 30.36C34.78 30.32 34.84 30.28 34.9 30.23C34.93 30.2 34.96 30.16 34.99 30.13C35.04 30.07 35.08 30.02 35.11 29.95C35.13 29.9 35.15 29.86 35.17 29.81C35.17 29.78 35.2 29.76 35.21 29.73C35.39 28.99 35.68 28.29 36.08 27.64C36.09 27.62 36.1 27.59 36.11 27.56C36.14 27.5 36.16 27.44 36.18 27.37C36.2 27.31 36.21 27.25 36.22 27.19C36.22 27.13 36.22 27.07 36.22 27C36.22 26.93 36.2 26.87 36.18 26.81C36.16 26.75 36.13 26.7 36.1 26.65C36.07 26.59 36.03 26.53 35.99 26.48C35.97 26.46 35.97 26.43 35.95 26.41L35.06 25.52L36.5 24.08L37.39 24.97C37.48 25.05 37.58 25.12 37.68 25.16C37.7 25.17 37.73 25.18 37.75 25.19C37.86 25.23 37.97 25.26 38.09 25.26C38.21 25.26 38.31 25.23 38.42 25.19C38.45 25.18 38.48 25.17 38.5 25.15C38.53 25.13 38.57 25.13 38.6 25.11C39.25 24.71 39.95 24.42 40.69 24.24C40.72 24.24 40.74 24.21 40.76 24.21C40.83 24.19 40.89 24.16 40.94 24.12C40.99 24.09 41.05 24.06 41.09 24.02C41.14 23.98 41.18 23.93 41.22 23.88C41.26 23.83 41.3 23.78 41.32 23.73C41.35 23.67 41.37 23.62 41.39 23.55C41.41 23.49 41.42 23.42 41.43 23.35C41.43 23.32 41.45 23.3 41.45 23.27V22.01H43.49V23.27C43.49 23.27 43.5 23.32 43.51 23.35C43.51 23.42 43.53 23.48 43.55 23.55C43.57 23.61 43.59 23.67 43.62 23.73C43.65 23.79 43.69 23.83 43.72 23.88C43.76 23.93 43.8 23.98 43.85 24.02C43.9 24.06 43.95 24.09 44 24.12C44.06 24.15 44.12 24.18 44.18 24.21C44.21 24.21 44.23 24.24 44.25 24.24C44.99 24.42 45.69 24.71 46.34 25.11C46.37 25.13 46.41 25.14 46.44 25.15C46.47 25.16 46.5 25.18 46.53 25.19C46.64 25.23 46.75 25.26 46.86 25.26C46.97 25.26 47.09 25.23 47.2 25.19C47.22 25.19 47.25 25.17 47.27 25.16C47.38 25.11 47.48 25.05 47.56 24.96L48.45 24.07L49.89 25.51L49 26.4C49 26.4 48.97 26.45 48.96 26.47C48.91 26.52 48.88 26.58 48.85 26.64C48.82 26.69 48.79 26.75 48.77 26.8C48.75 26.86 48.74 26.92 48.73 26.99C48.73 27.05 48.72 27.11 48.73 27.18C48.73 27.24 48.75 27.3 48.77 27.36C48.79 27.43 48.81 27.49 48.84 27.55C48.85 27.57 48.85 27.6 48.87 27.63C49.27 28.28 49.56 28.98 49.74 29.72C49.74 29.75 49.77 29.77 49.78 29.8C49.8 29.85 49.82 29.89 49.84 29.94C49.87 30.01 49.91 30.06 49.96 30.12C49.99 30.16 50.02 30.19 50.05 30.22C50.11 30.27 50.17 30.31 50.24 30.35C50.28 30.37 50.31 30.39 50.35 30.41C50.46 30.45 50.58 30.48 50.71 30.48H51.97V32.52H52Z" fill="black"/>
<path d="M42.5 27C40.02 27 38 29.02 38 31.5C38 33.98 40.02 36 42.5 36C44.98 36 47 33.98 47 31.5C47 29.02 44.98 27 42.5 27ZM42.5 34C41.12 34 40 32.88 40 31.5C40 30.12 41.12 29 42.5 29C43.88 29 45 30.12 45 31.5C45 32.88 43.88 34 42.5 34Z" fill="black"/>
<path d="M14 15.52H15.54C15.68 15.93 15.84 16.32 16.03 16.7L14.94 17.79C14.55 18.18 14.55 18.81 14.94 19.2L17.8 22.06C18 22.26 18.25 22.35 18.51 22.35C18.77 22.35 19.02 22.25 19.22 22.06L20.31 20.97C20.69 21.16 21.09 21.32 21.49 21.46V23C21.49 23.55 21.94 24 22.49 24H26.53C27.08 24 27.53 23.55 27.53 23V21.46C27.94 21.32 28.33 21.16 28.71 20.97L29.8 22.06C30 22.26 30.25 22.35 30.51 22.35C30.77 22.35 31.02 22.25 31.22 22.06L34.08 19.2C34.27 19.01 34.37 18.76 34.37 18.49C34.37 18.22 34.26 17.97 34.08 17.78L32.99 16.69C33.18 16.31 33.34 15.91 33.48 15.51H35.02C35.57 15.51 36.02 15.06 36.02 14.51V10.47C36.02 9.92 35.57 9.47 35.02 9.47H33.48C33.34 9.06 33.18 8.67 32.99 8.29L34.08 7.2C34.27 7.01 34.37 6.76 34.37 6.49C34.37 6.22 34.26 5.97 34.08 5.78L31.22 2.92C30.83 2.53 30.2 2.53 29.81 2.92L28.72 4.01C28.34 3.82 27.94 3.66 27.54 3.52V1.98C27.54 1.43 27.09 0.979996 26.54 0.979996H22.5C21.95 0.979996 21.5 1.43 21.5 1.98V3.52C21.09 3.66 20.7 3.82 20.32 4.01L19.23 2.92C18.84 2.53 18.21 2.53 17.82 2.92L14.96 5.78C14.57 6.17 14.57 6.8 14.96 7.19L16.05 8.28C15.86 8.66 15.7 9.06 15.56 9.46H14.02C13.47 9.46 13.02 9.91 13.02 10.46V14.5C13.02 15.05 13.47 15.5 14.02 15.5L14 15.52ZM15 11.48H16.26C16.39 11.48 16.51 11.45 16.62 11.41C16.66 11.39 16.69 11.37 16.73 11.35C16.8 11.31 16.87 11.27 16.93 11.22C16.96 11.19 16.99 11.16 17.02 11.12C17.07 11.06 17.11 11 17.14 10.94C17.16 10.9 17.18 10.85 17.2 10.8C17.21 10.77 17.23 10.75 17.24 10.71C17.42 9.97 17.71 9.27 18.11 8.62C18.12 8.6 18.13 8.57 18.14 8.54C18.17 8.48 18.19 8.42 18.21 8.35C18.23 8.29 18.24 8.23 18.25 8.17C18.25 8.11 18.25 8.05 18.25 7.98C18.25 7.91 18.23 7.85 18.21 7.79C18.19 7.73 18.16 7.68 18.14 7.63C18.11 7.57 18.07 7.51 18.02 7.46C18 7.44 18 7.41 17.98 7.39L17.09 6.5L18.53 5.06L19.42 5.95C19.51 6.04 19.61 6.1 19.71 6.15C19.73 6.16 19.76 6.17 19.78 6.18C19.89 6.22 20 6.25 20.12 6.25C20.24 6.25 20.34 6.22 20.45 6.18C20.48 6.17 20.51 6.16 20.54 6.14C20.57 6.12 20.61 6.12 20.64 6.1C21.29 5.7 21.99 5.41 22.73 5.23C22.76 5.23 22.78 5.2 22.8 5.2C22.87 5.18 22.92 5.15 22.98 5.11C23.04 5.08 23.09 5.05 23.13 5.01C23.18 4.97 23.22 4.92 23.26 4.87C23.3 4.82 23.34 4.77 23.37 4.71C23.4 4.65 23.42 4.6 23.43 4.54C23.45 4.47 23.46 4.41 23.47 4.34C23.47 4.31 23.49 4.29 23.49 4.26V3H25.53V4.26C25.53 4.26 25.54 4.31 25.55 4.34C25.55 4.41 25.57 4.47 25.59 4.54C25.61 4.6 25.63 4.66 25.65 4.71C25.68 4.77 25.72 4.82 25.76 4.87C25.8 4.92 25.84 4.97 25.89 5.01C25.94 5.05 25.99 5.08 26.04 5.11C26.1 5.14 26.16 5.17 26.22 5.2C26.25 5.2 26.27 5.23 26.29 5.23C27.03 5.41 27.73 5.7 28.38 6.1C28.41 6.12 28.45 6.13 28.48 6.14C28.51 6.15 28.54 6.17 28.57 6.18C28.68 6.22 28.79 6.25 28.9 6.25C29.01 6.25 29.13 6.22 29.24 6.18C29.26 6.18 29.29 6.16 29.31 6.15C29.42 6.1 29.52 6.04 29.6 5.95L30.49 5.06L31.93 6.5L31.04 7.39C31.04 7.39 31.01 7.44 31 7.46C30.95 7.51 30.92 7.57 30.89 7.63C30.86 7.68 30.83 7.74 30.81 7.79C30.79 7.85 30.78 7.91 30.77 7.98C30.77 8.04 30.76 8.1 30.77 8.17C30.77 8.23 30.79 8.29 30.81 8.35C30.83 8.42 30.85 8.48 30.88 8.54C30.89 8.56 30.89 8.59 30.91 8.62C31.31 9.27 31.6 9.97 31.78 10.71C31.78 10.74 31.81 10.76 31.82 10.79C31.84 10.84 31.86 10.88 31.88 10.93C31.91 11 31.95 11.05 32 11.11C32.03 11.15 32.06 11.18 32.09 11.21C32.15 11.26 32.21 11.3 32.28 11.34C32.32 11.36 32.35 11.38 32.39 11.4C32.5 11.44 32.62 11.47 32.75 11.47H34.01V13.51H32.75C32.75 13.51 32.7 13.52 32.67 13.53C32.6 13.53 32.54 13.55 32.48 13.57C32.42 13.59 32.36 13.61 32.3 13.64C32.24 13.67 32.2 13.7 32.15 13.74C32.1 13.78 32.05 13.82 32.01 13.87C31.97 13.92 31.94 13.97 31.91 14.02C31.87 14.08 31.84 14.14 31.82 14.21C31.82 14.24 31.79 14.26 31.79 14.28C31.61 15.02 31.32 15.72 30.92 16.37C30.91 16.39 30.9 16.42 30.89 16.45C30.86 16.51 30.84 16.57 30.82 16.64C30.8 16.7 30.79 16.76 30.78 16.82C30.78 16.88 30.78 16.94 30.78 17.01C30.78 17.08 30.8 17.14 30.82 17.2C30.84 17.26 30.87 17.31 30.9 17.36C30.93 17.42 30.97 17.48 31.01 17.53C31.03 17.55 31.03 17.58 31.05 17.6L31.94 18.49L30.5 19.93L29.61 19.04C29.61 19.04 29.56 19.01 29.54 18.99C29.49 18.95 29.43 18.91 29.37 18.88C29.31 18.85 29.26 18.82 29.2 18.8C29.14 18.78 29.08 18.77 29.01 18.76C28.95 18.76 28.89 18.75 28.82 18.76C28.76 18.76 28.7 18.78 28.63 18.8C28.57 18.82 28.51 18.84 28.44 18.87C28.41 18.88 28.39 18.88 28.36 18.9C27.71 19.3 27.01 19.59 26.27 19.77C26.24 19.77 26.22 19.8 26.2 19.8C26.13 19.82 26.08 19.85 26.02 19.89C25.96 19.92 25.91 19.95 25.87 19.99C25.82 20.03 25.78 20.08 25.74 20.13C25.7 20.18 25.66 20.23 25.63 20.29C25.6 20.35 25.58 20.4 25.57 20.46C25.55 20.53 25.54 20.59 25.53 20.66C25.53 20.69 25.51 20.71 25.51 20.74V22H23.47V20.74C23.47 20.74 23.46 20.69 23.45 20.66C23.45 20.59 23.43 20.53 23.41 20.46C23.39 20.4 23.37 20.34 23.35 20.29C23.32 20.23 23.28 20.18 23.24 20.13C23.2 20.08 23.16 20.03 23.11 19.99C23.06 19.95 23.01 19.92 22.96 19.89C22.9 19.86 22.84 19.83 22.78 19.8C22.75 19.8 22.73 19.77 22.71 19.77C21.97 19.59 21.27 19.3 20.62 18.9C20.6 18.89 20.57 18.88 20.54 18.87C20.48 18.84 20.42 18.82 20.35 18.8C20.29 18.78 20.23 18.77 20.16 18.76C20.1 18.76 20.04 18.76 19.98 18.76C19.91 18.76 19.85 18.78 19.79 18.8C19.73 18.82 19.68 18.85 19.63 18.87C19.57 18.9 19.51 18.94 19.46 18.99C19.44 19.01 19.41 19.01 19.39 19.03L18.5 19.92L17.06 18.48L17.95 17.59C17.95 17.59 17.98 17.55 17.99 17.52C18.04 17.47 18.07 17.41 18.11 17.35C18.14 17.3 18.17 17.24 18.18 17.19C18.2 17.13 18.21 17.06 18.22 17C18.22 16.94 18.23 16.88 18.22 16.81C18.22 16.75 18.2 16.69 18.18 16.63C18.16 16.56 18.14 16.5 18.11 16.44C18.1 16.42 18.1 16.39 18.08 16.36C17.68 15.71 17.39 15.01 17.21 14.27C17.21 14.24 17.18 14.22 17.18 14.2C17.16 14.13 17.13 14.08 17.09 14.02C17.06 13.97 17.03 13.91 16.99 13.87C16.95 13.82 16.9 13.78 16.85 13.74C16.8 13.7 16.75 13.67 16.7 13.64C16.64 13.61 16.58 13.59 16.52 13.57C16.46 13.55 16.39 13.54 16.33 13.53C16.3 13.53 16.28 13.51 16.25 13.51H14.99V11.47L15 11.48Z" fill="black"/>
<path d="M24.5 17C26.98 17 29 14.98 29 12.5C29 10.02 26.98 8 24.5 8C22.02 8 20 10.02 20 12.5C20 14.98 22.02 17 24.5 17ZM24.5 10C25.88 10 27 11.12 27 12.5C27 13.88 25.88 15 24.5 15C23.12 15 22 13.88 22 12.5C22 11.12 23.12 10 24.5 10Z" fill="black"/>
<path d="M37.05 7.56C37.05 7.56 37.13 7.56 37.17 7.56C37.67 7.56 38.1 7.19 38.16 6.68L38.28 5.67C38.88 6.78 39.35 7.95 39.63 9.16C40.32 12.06 39.95 14.58 39.52 16.18C39.38 16.71 39.69 17.26 40.23 17.4C40.32 17.42 40.4 17.43 40.49 17.43C40.93 17.43 41.34 17.14 41.45 16.69C41.94 14.87 42.36 12 41.57 8.69C41.26 7.38 40.77 6.11 40.14 4.91L40.73 5.15C40.85 5.2 40.98 5.22 41.1 5.22C41.5 5.22 41.87 4.98 42.03 4.59C42.24 4.08 41.99 3.5 41.47 3.29L37.97 1.89C37.97 1.89 37.88 1.88 37.84 1.87C37.8 1.86 37.76 1.83 37.72 1.83C37.7 1.83 37.68 1.83 37.66 1.83C37.59 1.83 37.52 1.83 37.45 1.85C37.41 1.85 37.37 1.85 37.33 1.86C37.31 1.86 37.3 1.88 37.28 1.89C37.21 1.91 37.16 1.95 37.1 1.98C37.06 2 37.02 2.01 36.99 2.04C36.98 2.05 36.97 2.07 36.96 2.08C36.92 2.12 36.88 2.17 36.84 2.22C36.81 2.26 36.77 2.29 36.75 2.34C36.74 2.36 36.73 2.39 36.72 2.41C36.72 2.43 36.7 2.44 36.69 2.45C36.67 2.49 36.68 2.53 36.67 2.57C36.67 2.58 36.67 2.59 36.66 2.61C36.66 2.64 36.63 2.67 36.63 2.71C36.63 2.71 36.63 2.72 36.63 2.73L36.19 6.45C36.12 7 36.52 7.5 37.07 7.56H37.05Z" fill="black"/>
</svg>
