<svg width="96" height="94" viewBox="0 0 96 94" fill="none" xmlns="http://www.w3.org/2000/svg">
<path d="M92.8 14.7L49.2 0.399988C48.4 0.0999878 47.6 0.0999878 46.8 0.399988L3.2 14.7C1.6 15.2 0.5 16.7 0.5 18.4V75.7C0.5 77.4 1.6 78.9 3.2 79.4L46.8 93.7C47.2 93.8 47.6 93.9 48 93.9C48.4 93.9 48.8 93.8 49.2 93.7L92.8 79.4C94.4 78.9 95.5 77.4 95.5 75.7V18.4C95.5 16.7 94.4 15.2 92.8 14.7ZM48 8.09999L79.2 18.4L48 28.6L38.3 25.4L45.1 22.9C47.1 22.2 48.1 19.9 47.4 17.9C46.7 15.9 44.4 14.9 42.4 15.6L26.4 21.4L16.8 18.2L48 8.09999ZM8.2 23.7L22.3 28.3V60.1C22.3 62.2 24 64 26.2 64C28.4 64 30.1 62.3 30.1 60.1V30.9L44.2 35.5V84.6L8.2 72.8V23.7ZM73.7 77.5V57.4C73.7 55.3 72 53.5 69.8 53.5C67.7 53.5 65.9 55.2 65.9 57.4V80L51.8 84.6V35.5L87.7 23.7V72.8L73.7 77.5Z" fill="black"/>
</svg>
