<svg width="68" height="96" viewBox="0 0 68 96" fill="none" xmlns="http://www.w3.org/2000/svg">
<path d="M60.1254 12.3749H48.2505V7.62539C48.2505 3.69585 45.0549 0.5 41.1251 0.5H26.8754C22.9458 0.5 19.75 3.69563 19.75 7.62539V12.3749H7.87588C3.94633 12.3749 0.750488 15.5706 0.750488 19.5003V26.6257C0.750488 27.937 1.81489 29.0005 3.12527 29.0005H64.875C66.1862 29.0005 67.2498 27.9361 67.2498 26.6257V19.5003C67.2506 15.5708 64.0552 12.3749 60.1254 12.3749ZM24.5006 7.62539C24.5006 6.3158 25.5658 5.25062 26.8754 5.25062H41.1251C42.4347 5.25062 43.4999 6.31584 43.4999 7.62539V12.3749H24.5004L24.5006 7.62539ZM3.12569 83.6251C3.12569 90.173 8.45266 95.5 15.0006 95.5H53.0005C59.5484 95.5 64.8754 90.173 64.8754 83.6251L64.8762 33.7503H3.12652L3.12569 83.6251ZM45.8755 45.6252C45.8755 44.314 46.9399 43.2504 48.2503 43.2504C49.5615 43.2504 50.6251 44.3148 50.6251 45.6252V83.6251C50.6251 84.9363 49.5607 85.9998 48.2503 85.9998C46.939 85.9998 45.8755 84.9354 45.8755 83.6251V45.6252ZM31.6258 45.6252C31.6258 44.314 32.6902 43.2504 34.0005 43.2504C35.3118 43.2504 36.3753 44.3148 36.3753 45.6252V83.6251C36.3753 84.9363 35.3109 85.9998 34.0005 85.9998C32.6893 85.9998 31.6258 84.9354 31.6258 83.6251V45.6252ZM17.376 45.6252C17.376 44.314 18.4404 43.2504 19.7508 43.2504C21.0621 43.2504 22.1256 44.3148 22.1256 45.6252V83.6251C22.1256 84.9363 21.0612 85.9998 19.7508 85.9998C18.4396 85.9998 17.376 84.9354 17.376 83.6251V45.6252Z" fill="black"/>
</svg>
