<svg xmlns="http://www.w3.org/2000/svg" xmlns:xlink="http://www.w3.org/1999/xlink" version="1.1" x="0px" y="0px" viewBox="0 0 105 105" enable-background="new 0 0 105 105" xml:space="preserve">
    <g>
        <g>
            <polygon points="60.299,26.042 61.824,26.042 61.824,22.274 56.528,22.274 49.584,29.216 42.673,22.302 42.673,22.274     37.377,22.274 37.377,26.042 38.875,26.042 46.921,34.088 46.921,57.721 40.937,57.721 40.937,61.084 46.921,61.084     46.921,73.552 38.875,81.602 37.377,81.602 37.377,85.367 42.673,85.367 42.673,85.335 49.584,78.423 56.528,85.367     61.824,85.367 61.824,81.602 60.299,81.602 52.248,73.552 52.248,61.084 58.238,61.084 58.238,57.721 52.248,57.721     52.248,34.093   "/>
        </g>
        <g>
            <path d="M27.021,10.19h47.595h5.936h8.967V2.5h-8.967h-5.936H27.021c-6.375,0-11.54,5.167-11.54,11.537v76.929    c0,6.357,5.165,11.534,11.54,11.534h47.595h5.936h8.967v-7.692h-8.967h-5.936H27.021c-2.122,0-3.846-1.715-3.846-3.842V14.037    C23.175,11.915,24.899,10.19,27.021,10.19z"/>
        </g>
    </g>
</svg>