<svg width="15" height="15" viewBox="0 0 15 15" fill="none" xmlns="http://www.w3.org/2000/svg">
    <path
        d="M14.7734 13.6848L11.3362 10.2454L11.4654 10.0671C12.4022 8.77597 12.8182 7.17894 12.6304 5.59451C12.4426 4.01008 11.6648 2.55472 10.4522 1.5187C9.23954 0.482677 7.68119 -0.0578548 6.08793 0.00491311C4.49468 0.067681 2.98361 0.729135 1.85614 1.85735C0.728661 2.98556 0.0676369 4.4976 0.00490991 6.0919C-0.0578171 7.6862 0.482363 9.24557 1.51771 10.459C2.55306 11.6724 4.00747 12.4507 5.59087 12.6386C7.17426 12.8265 8.77026 12.4103 10.0605 11.4728L10.2387 11.3436L13.6785 14.7805C13.826 14.9214 14.022 15 14.226 15C14.4299 15 14.6259 14.9214 14.7734 14.7805C14.9185 14.6351 15 14.4381 15 14.2326C15 14.0272 14.9185 13.8302 14.7734 13.6848ZM6.34961 11.1317C5.40471 11.1317 4.48104 10.8514 3.69539 10.3261C2.90974 9.80077 2.2974 9.05414 1.93581 8.18061C1.57422 7.30707 1.47961 6.34586 1.66395 5.41852C1.84829 4.49118 2.30329 3.63936 2.97143 2.97079C3.63957 2.30221 4.49083 1.84691 5.41757 1.66245C6.34431 1.47799 7.30489 1.57266 8.17786 1.93449C9.05083 2.29632 9.79696 2.90906 10.3219 3.69522C10.8469 4.48138 11.1271 5.40565 11.1271 6.35116C11.1257 7.61863 10.6219 8.83379 9.72627 9.73003C8.83062 10.6263 7.61625 11.1304 6.34961 11.1317Z"
        fill="#949494" />
</svg>