<svg width="48" height="33" viewBox="0 0 48 33" fill="none" xmlns="http://www.w3.org/2000/svg">
    <path
        d="M46.6296 20.8421H42.2778V16.5C42.2778 16.0206 41.8887 15.6316 41.4074 15.6316H24.8704V12.1579H29.2222C29.7035 12.1579 30.0926 11.7688 30.0926 11.2895V0.868421C30.0926 0.389053 29.7035 0 29.2222 0H18.7778C18.2973 0 17.9074 0.389053 17.9074 0.868421V11.2895C17.9074 11.7688 18.2973 12.1579 18.7778 12.1579H23.1296V15.6316H6.59259C6.11215 15.6316 5.72222 16.0206 5.72222 16.5V20.8421H1.37037C0.889926 20.8421 0.5 21.2303 0.5 21.7105V32.1316C0.5 32.6118 0.889926 33 1.37037 33H11.8148C12.2953 33 12.6852 32.6118 12.6852 32.1316V21.7105C12.6852 21.2303 12.2953 20.8421 11.8148 20.8421H7.46296V17.3684H23.1296V20.8421H18.7778C18.2973 20.8421 17.9074 21.2303 17.9074 21.7105V32.1316C17.9074 32.6118 18.2973 33 18.7778 33H29.2222C29.7035 33 30.0926 32.6118 30.0926 32.1316V21.7105C30.0926 21.2303 29.7035 20.8421 29.2222 20.8421H24.8704V17.3684H40.537V20.8421H36.1852C35.7039 20.8421 35.3148 21.2303 35.3148 21.7105V32.1316C35.3148 32.6118 35.7039 33 36.1852 33H46.6296C47.1109 33 47.5 32.6118 47.5 32.1316V21.7105C47.5 21.2303 47.1109 20.8421 46.6296 20.8421Z"
        fill="#292929" />
</svg>